<?xml version="1.0" encoding="UTF-8" standalone="no"?>
<svg
   xmlns:dc="http://purl.org/dc/elements/1.1/"
   xmlns:cc="http://creativecommons.org/ns#"
   xmlns:rdf="http://www.w3.org/1999/02/22-rdf-syntax-ns#"
   xmlns:svg="http://www.w3.org/2000/svg"
   xmlns="http://www.w3.org/2000/svg"
   xmlns:sodipodi="http://sodipodi.sourceforge.net/DTD/sodipodi-0.dtd"
   xmlns:inkscape="http://www.inkscape.org/namespaces/inkscape"
   inkscape:version="1.0 (4035a4fb49, 2020-05-01)"
   height="173.043"
   width="173.04216"
   sodipodi:docname="wheel.svg"
   version="1.1"
   id="Wheel">
  <metadata
     id="metadata21">
    <rdf:RDF>
      <cc:Work
         rdf:about="">
        <dc:format>image/svg+xml</dc:format>
        <dc:type
           rdf:resource="http://purl.org/dc/dcmitype/StillImage" />
        <dc:title></dc:title>
      </cc:Work>
    </rdf:RDF>
  </metadata>
  <defs
     id="defs19" />
  <sodipodi:namedview
     inkscape:current-layer="Wheel"
     inkscape:window-maximized="1"
     inkscape:window-y="-8"
     inkscape:window-x="-8"
     inkscape:cy="77.386114"
     inkscape:cx="14.727395"
     inkscape:zoom="1.835"
     fit-margin-bottom="0"
     fit-margin-right="0"
     fit-margin-left="0"
     fit-margin-top="0"
     showgrid="false"
     id="namedview17"
     inkscape:window-height="1137"
     inkscape:window-width="1920"
     inkscape:pageshadow="2"
     inkscape:pageopacity="0"
     guidetolerance="10"
     gridtolerance="10"
     objecttolerance="10"
     borderopacity="1"
     bordercolor="#666666"
     pagecolor="#ffffff" />
  <g
     transform="translate(-72.984877,-1.8356479)"
     id="g14"
     fill="#ff00ff">
    <path
       d="M 160.50615,1.8506229 V 46.151279 a 41.95536,42.256054 0 0 1 19.21795,5.186762 L 201.89277,12.94143 A 86.556548,86.556548 0 0 0 160.50615,1.8506339 Z"
       id="Segment5" />
    <path
       d="m 203.59861,13.98736 -22.17177,38.402308 a 41.95536,42.256054 0 0 1 13.93713,14.109215 l 38.51083,-22.2343 A 86.556548,86.556548 0 0 0 203.59861,13.98736 Z"
       id="Segment10" />
    <path
       d="m 234.86957,45.999361 -38.51548,22.237401 a 41.95536,42.256054 0 0 1 5.07204,19.120281 h 44.6009 A 86.556548,86.556548 0 0 0 234.86957,45.999361 Z"
       id="Segment15" />
    <path
       d="m 201.41167,89.35692 a 41.95536,42.256054 0 0 1 -5.02812,19.13734 l 38.53718,22.2498 a 86.556548,86.556548 0 0 0 11.09183,-41.38714 z"
       id="Segment20" />
    <path
       d="m 195.35519,110.2094 a 41.95536,42.256054 0 0 1 -13.91853,14.13143 l 22.16195,38.38474 a 86.556548,86.556548 0 0 0 30.27671,-30.27619 z"
       id="Segment25" />
    <path
       d="m 179.70395,125.34161 a 41.95536,42.256054 0 0 1 -19.1978,5.23586 v 44.30117 a 86.556548,86.556548 0 0 0 41.35717,-11.15694 z"
       id="Segment30" />
    <path
       d="m 139.28781,125.37621 -22.16868,38.39662 a 86.556548,86.556548 0 0 0 41.38662,11.09079 v -44.30094 a 41.95536,42.256054 0 0 1 -19.21794,-5.18677 z"
       id="Segment35" />
    <path
       d="m 123.64742,110.2154 -38.510314,22.2343 a 86.556548,86.556548 0 0 0 30.275674,30.27671 l 22.17177,-38.40211 a 41.95536,42.256054 0 0 1 -13.93713,-14.10922 z"
       id="Segment40" />
    <path
       d="M 72.984877,89.35692 A 86.556548,86.556548 0 0 0 84.14182,130.7146 l 38.51599,-22.2374 a 41.95536,42.256054 0 0 1 -5.07204,-19.12028 z"
       id="Segment45" />
    <path
       d="M 84.09066,45.970421 A 86.556548,86.556548 0 0 0 72.999347,87.357043 h 44.600893 a 41.95536,42.256054 0 0 1 5.02812,-19.136818 z"
       id="Segment50" />
    <path
       d="m 115.41329,13.987889 a 86.556548,86.556548 0 0 0 -30.2767,30.276694 l 38.52013,22.239986 A 41.95536,42.256054 0 0 1 137.57525,52.37365 Z"
       id="Segment55" />
    <path
       d="M 158.50575,1.8356479 A 86.556548,86.556548 0 0 0 117.14859,12.99259 l 22.15937,38.380085 a 41.95536,42.256054 0 0 1 19.19779,-5.235855 z"
       id="Segment60" />
  </g>
</svg>
